<?xml version="1.0" encoding="utf-8"?>
<!-- Generator: Adobe Illustrator 19.2.1, SVG Export Plug-In . SVG Version: 6.00 Build 0)  -->
<svg version="1.1" id="Layer_1" xmlns="http://www.w3.org/2000/svg" xmlns:xlink="http://www.w3.org/1999/xlink" x="0px" y="0px"
	 viewBox="0 0 136.4 56.7" style="enable-background:new 0 0 136.4 56.7;" xml:space="preserve">
<style type="text/css">
	.st0{clip-path:url(#SVGID_2_);fill:#FFFFFF;}
</style>
<g>
	<defs>
		<rect id="SVGID_1_" y="0" width="136.4" height="56.7"/>
	</defs>
	<clipPath id="SVGID_2_">
		<use xlink:href="#SVGID_1_"  style="overflow:visible;"/>
	</clipPath>
	<path class="st0" d="M39.1,21.6c-2-0.1-3.4,3.6-3.6,6.9c-0.3,4.2,1.5,5.9,2.9,5.8c1,0,3-1.5,3.1-5.6C41.6,25.5,41.2,21.7,39.1,21.6
		 M44.8,28.8c0.1,6.4-2.4,10.7-6.9,10.9c-2,0.1-6.2-2.7-6-10.4c0.1-3.2,2.7-11,6.8-10.9C41.5,18.4,44.7,22.6,44.8,28.8"/>
	<path class="st0" d="M101.3,34c0-1.2-2.1-2.2-3.1-2.1c-1.1,0.1-2.9,0.5-2.9,2.3c0,1.9,2,2.2,3.2,2.2
		C100.2,36.4,101.3,35.3,101.3,34 M104.4,36.2c-0.4,1.4-6.3,4.6-10.1,3.9c-2.3-1-4-2.3-3.3-6.1c0.9-5.2,6.3-6.5,9.1-4.6l1.2,0.8
		c0,0-0.7-5.1-2.1-6.7C97.8,22,97.4,23,96.5,24c-0.6,0.8-2.6,2-3.6,0.2c-1.4-2.3,1.7-6.3,4.9-6.5C104.3,17.2,104.8,34.8,104.4,36.2"
		/>
	<path class="st0" d="M136.4,18.9c0.2,1.5-0.5,5.7-4,4.2c-2.1-0.9-1.8-2.6-1.9-2.9c-2.4,1-5.2,2.7-5.9,5c-1,2.9,7.2,2.4,9.3,6.5
		c3.8,7.3-3.2,12.8-6.3,15.1c-2,1.3-4.6,2-7.2,1.5c-1.3-0.3-2.2-1.4-2.5-2.7c-0.3-3.1,1.7-6,4.3-7.4c2.3-1.4,5.3-1.1,5.3,1.1
		c0,2.1-2.8,2.2-3.7,2.7c-2.6,1.5-0.8,2.8,0.3,2.7c2.4-0.2,3.9-1.8,5.1-2.9c1.6-1.7,2.7-4.5,2.1-6.6c-1-3.7-4.9-3.6-8.1-5.3
		c-3.1-1.7-3.8-4.4-0.6-8.7c1.9-2.6,7.4-7.8,11.5-5.3C135.5,16.6,136.2,17.5,136.4,18.9"/>
	<path class="st0" d="M118.5,34.6c0.2,7.1-3.8,6.7-3.5-0.3c0.4-2.9,1.1-5.5,0.1-7.9c-0.3-0.4-0.7-0.8-1.2-0.7
		c-1.8,0.8-2.8,3.1-3.5,5c-0.9,2-1.3,4.3-1.9,6.5c-0.2,1.3-2.5,1.7-2-1.9c0.3-2.2,0.6-6.7,0.3-10.1c-0.2-2.2-0.5-4.4-0.8-6.5
		c0-1.3,1.7-1.8,2.8-1.9c0.8,0,0.9,1.2,1,1.9c0.3,1.4,0.5,2.7,0.7,4.7c2.3-3.1,4-5.8,6.2-5.9C119.9,17.9,118.4,29.3,118.5,34.6"/>
	<path class="st0" d="M82.4,25.3c0.1-0.2,3.1-9.7,5.5-6.5c0.9,1.1,1,3.7,1,5.3c0,5.9-0.3,9.5,0.1,12.3c0.3,2.2-2.1,2-2.6,1.3
		c-2.4-3.5,0.5-14.3-0.7-14c-1.2,1.2-2.4,3.4-2.7,4.4c-0.8,2.9-1.5,7-1.6,8c-0.2,2.7-4.1,3-3.4-2.1c0.3-1.7,0.9-4.8,1-6.8
		c0.1-1.3,0.2-3.6-0.2-5c-0.3-1-1.9,3.1-2.3,3.7c-0.3,0.6-2.1,5-1.7,10.8c0.1,0.8,0,2-1.6,1.9c-1.4,0-1.7-1.8-1.6-5.7
		c0-3.9-1.2-12.1-1.4-13.8c-0.1-1.7,3.7-3.3,3.6-1.6c-0.1,1.1-0.3,3.9,0.1,5.9c0.4-1,1.6-3.6,1.9-4.3c0.7-1.9,2.9-4,3.9-3.3
		C81.8,17,82.1,22.9,82.4,25.3"/>
	<path class="st0" d="M61.6,15.6c0.5,0.8,0.8,3.9-1.9,3.4c-0.8-0.1-2-0.7-3.3-0.4c-1.4,0.4-2.9,2.3-4.1,4.4c-1.5,2.6-2.1,8.7-1.3,12
		c1,4.3,1,5.9-0.7,6.2c-2.5,0.5-2.7-2.3-3-5.2C47.2,34.6,46,20.6,45.9,20c-0.1-0.5,0.3-0.8,0.9-1.2c0.6-0.4,1.5-0.5,1.9-0.3
		c0.8,0.4,0.7,4.1,0.9,4.8c0.7-2.1,2.2-3.9,3.4-5.5c1.1-1.5,2.3-2.7,5-3.4C60.4,13.6,61.4,15.2,61.6,15.6"/>
	<path class="st0" d="M63.8,25.1c0,0-3.9-1.1-5,4.8c-0.3,1.5-0.3,4.9,1.9,3.1C62.8,31.2,63.8,25.1,63.8,25.1 M70.8,0.5
		c1.1,0.6,0.5,2.6-0.3,5.5c-0.9,2.9-1.2,5.3-1.7,8.3c-1.1,6.1-2.6,18.9,0.7,30.5c0.3,1.1-2.4,2.6-3.3,0.6c-1.1-2.4-1-4.2-1.5-6.8
		c-0.3-1.9-0.4-6.5-0.4-6.5s0,4.2-3.5,5.4c-1.6,0.5-3.3,0.3-4.7-1.1c-1.9-1.8-2-5.2-1.1-7.8c0.9-2.6,3.5-5.8,5.9-6.6
		c2.4-0.8,3.6-0.1,3.6-0.1s1-20,3.1-21.5C68.4-0.1,69.7-0.2,70.8,0.5"/>
	<path class="st0" d="M12.9,24.2c0.5,0.3,1.2,1.1,2.9,0.9c3.2-0.5,5.4-3,7.2-5.5c0.9-1.4,1.8-3.1,2.1-4.8c-0.1-0.5-0.7-0.6-1.2-0.7
		c-4.7-0.6-9.2,2.2-11.4,6.2C12,21.4,11.9,23.2,12.9,24.2 M4.1,54.3c-3.2-2.7-4.9-6.6-3.8-10.7c2.1-8.1,10.5-10.3,15.3-8.2
		c1.5,0.7,3.9,3.5,0.7,5.9c-1.6,1.2-3.3,1.8-4,0.4c-0.5-1.1,0.7-1.8-0.7-2.9c-1.2-1-3.3-0.9-4.6,0.3c-2.4,2.1-2.5,5.8-1.5,8.5
		c2.1,5.5,10.3,5.8,15.9-0.9c3.8-4.4,5.3-9.9,5.3-16.2c0-3.9-0.3-5.9-0.7-8.7c0,0-3,4.3-6.9,6.7C11,33.6,4.2,26.2,8.4,18.8
		c2.4-4.3,6.5-6.3,8.4-7.2c2.7-1.3,8.7-2.3,11.6,0c0.7,8.3,2.4,19.3,1.2,25.1c-1.7,8.3-3.9,14.5-11.6,18.4
		C12.7,57.7,7.3,57,4.1,54.3"/>
</g>
</svg>
