<?xml version="1.0" encoding="UTF-8" standalone="no"?>
<!-- Created with Inkscape (http://www.inkscape.org/) -->

<svg
   xmlns:dc="http://purl.org/dc/elements/1.1/"
   xmlns:cc="http://creativecommons.org/ns#"
   xmlns:rdf="http://www.w3.org/1999/02/22-rdf-syntax-ns#"
   xmlns:svg="http://www.w3.org/2000/svg"
   xmlns="http://www.w3.org/2000/svg"
   xmlns:sodipodi="http://sodipodi.sourceforge.net/DTD/sodipodi-0.dtd"
   xmlns:inkscape="http://www.inkscape.org/namespaces/inkscape"
   version="1.1"
   id="svg64"
   width="485.33334"
   height="137.33333"
   viewBox="0 0 485.33334 137.33333"
   sodipodi:docname="licor.svg"
   inkscape:export-filename="/Users/mong-kuensun/Downloads/licor.png"
   inkscape:export-xdpi="96"
   inkscape:export-ydpi="96"
   inkscape:version="0.92.2 5c3e80d, 2017-08-06">
  <metadata
     id="metadata70">
    <rdf:RDF>
      <cc:Work
         rdf:about="">
        <dc:format>image/svg+xml</dc:format>
        <dc:type
           rdf:resource="http://purl.org/dc/dcmitype/StillImage" />
        <dc:title></dc:title>
      </cc:Work>
    </rdf:RDF>
  </metadata>
  <defs
     id="defs68" />
  <sodipodi:namedview
     pagecolor="#ffffff"
     bordercolor="#666666"
     borderopacity="1"
     objecttolerance="10"
     gridtolerance="10"
     guidetolerance="10"
     inkscape:pageopacity="0"
     inkscape:pageshadow="2"
     inkscape:window-width="1687"
     inkscape:window-height="895"
     id="namedview66"
     showgrid="false"
     inkscape:zoom="2.4910714"
     inkscape:cx="242.66667"
     inkscape:cy="68.666664"
     inkscape:window-x="0"
     inkscape:window-y="0"
     inkscape:window-maximized="0"
     inkscape:current-layer="svg64" />
  <path
     style="fill:#000000;stroke-width:0.66666669"
     d="m 431.57078,107.60408 c -2.07819,-1.95998 -2.3808,-2.64636 -2.3808,-5.4 0,-2.698725 0.32758,-3.482205 2.26666,-5.421285 6.17795,-6.177949 15.808,0.75491 12.04974,8.674845 -2.30653,4.86066 -7.97653,5.88032 -11.9356,2.14644 z m 9.90854,-2.11438 c 1.67305,-2.5534 1.3126,-5.26906 -1.00729,-7.588965 -2.60001,-2.6 -4.80505,-2.63084 -7.33333,-0.10256 -3.22515,3.225155 -2.4571,8.007935 1.55699,9.695735 2.56072,1.07671 5.29407,0.26914 6.78363,-2.00421 z m -7.62268,-3.28968 v -4.427225 l 2.83334,0.205 c 2.81784,0.20388 2.83359,0.21958 2.88056,2.871665 0.026,1.46667 0.27118,3.34167 0.54492,4.16667 0.71908,2.16719 -1.43182,2.00849 -2.25882,-0.16667 -0.77997,-2.05148 -1.83462,-2.16035 -2.1203,-0.21888 -0.11716,0.79628 -0.58803,1.57128 -1.04636,1.72222 -0.61056,0.20108 -0.83334,-0.90908 -0.83334,-4.15278 z m 4,-2.01722 c 0,-0.550005 -0.45,-1.000005 -1,-1.000005 -0.55,0 -1,0.45 -1,1.000005 0,0.55 0.45,1 1,1 0.55,0 1,-0.45 1,-1 z m -405.166676,8.55848 c -1.287639,-0.51958 -1.06616,-1.10778 2.388345,-6.34288 1.771922,-2.685255 5.572722,-8.482274 8.446222,-12.882274 2.8735,-4.4 9.852592,-15.05 15.509094,-23.666666 5.6565,-8.616666 12.2807,-18.740988 14.720447,-22.498493 2.43974,-3.757505 5.952593,-9.007506 7.80634,-11.666668 l 3.370436,-4.834838 13.58205,-0.18085 c 7.807422,-0.103959 13.847202,0.08431 14.205702,0.442808 0.3871,0.387099 -1.34822,3.6166 -4.57494,8.514183 -2.85923,4.33979 -11.293492,17.11583 -18.742812,28.391198 -7.449323,11.275373 -13.544216,20.794519 -13.544216,21.153666 0,0.400673 5.5995,0.722413 14.491276,0.83266 13.180432,0.163413 14.511532,0.285053 14.715232,1.344707 0.274,1.425266 -11.940262,20.133827 -13.791652,21.124667 -1.34088,0.71762 -56.838151,0.97224 -58.581524,0.26878 z m 72.982626,0.0353 c -1.00609,-1.00609 -0.35157,-2.45996 4.09486,-9.095725 4.16485,-6.215529 7.86679,-11.849609 23.76244,-36.164675 19.76196,-30.229221 23.23549,-35.423786 24.18412,-36.166666 0.77024,-0.60318 4.73285,-0.833333 14.34777,-0.833333 h 13.28363 l -0.29727,1.5 c -0.1635,0.825 -8.23321,13.500001 -17.93271,28.166667 -9.69949,14.666665 -20.98474,31.766665 -25.07832,37.999998 -10.89816,16.594694 -7.85969,14.630554 -23.0059,14.871514 -7.08179,0.11267 -13.09317,-0.0123 -13.35862,-0.27778 z m 99.07988,-0.28801 c -8.26332,-1.63484 -12.86836,-7.17327 -12.04417,-14.485431 0.57886,-5.135613 2.94569,-9.07198 29.71822,-49.425561 6.49747,-9.793487 11.99359,-14.097299 21.76345,-17.042206 5.14444,-1.550675 31.19193,-1.444768 36.27104,0.147476 7.30755,2.290832 10.90038,8.131141 9.5434,15.51323 -0.72606,3.949777 -4.57415,11.159966 -7.55372,14.153436 l -1.82482,1.833334 h -11.01194 c -6.35715,0 -11.18003,-0.271984 -11.4096,-0.64344 -0.21872,-0.353891 0.85894,-2.633146 2.39481,-5.065011 2.24838,-3.56006 2.61046,-4.536812 1.85832,-5.013019 -1.30485,-0.826147 -15.07451,-0.762051 -16.64317,0.07747 -1.04962,0.561738 -14.67453,20.497584 -22.18718,32.464084 -3.01162,4.79702 -2.94098,4.846566 6.90994,4.846566 h 8.6804 l 2.15293,-3.111779 c 4.84544,-7.003467 3.80384,-6.525867 14.79691,-6.784827 10.53762,-0.248272 13.02268,0.04989 13.02268,1.562374 0,1.853007 -12.68409,20.244809 -15.8638,23.002354 -4.00449,3.47282 -11.35236,7.02838 -16.4253,7.94804 -4.54586,0.82411 -28.01411,0.8408 -32.1484,0.0229 z m 82.38447,0.0207 c -8.7146,-1.47496 -13.15577,-6.72319 -12.43315,-14.692481 0.43911,-4.842526 1.3784,-6.694793 10.10413,-19.925133 3.76359,-5.706519 10.61376,-16.102601 15.2226,-23.102401 10.6612,-16.191977 14.83679,-19.949318 25.78045,-23.198134 5.42322,-1.609974 34.05496,-1.560456 39.22049,0.06783 6.96688,2.196115 10.83511,8.021594 9.82026,14.789116 -0.57228,3.816167 -2.45935,7.539691 -8.20928,16.198323 -2.5091,3.778372 -6.61101,10.019772 -9.11536,13.869772 -15.82591,24.329603 -16.90253,25.810883 -20.99695,28.888718 -5.11684,3.84639 -9.95759,6.12695 -14.9626,7.04911 -4.4262,0.81552 -29.69911,0.8561 -34.43059,0.0553 z m 38.46202,-25.1598 c 8.16569,-11.80252 21.62445,-33.168243 21.45381,-34.057826 -0.18394,-0.958923 -1.45207,-1.133924 -9.37965,-1.294375 -5.40594,-0.109414 -9.6946,0.09685 -10.45303,0.502748 -0.70733,0.378556 -3.30058,3.762047 -5.76276,7.518869 -2.46218,3.756821 -7.57958,11.514911 -11.37202,17.240204 -3.79244,5.725276 -6.89534,10.900276 -6.89534,11.499989 0,0.962527 1.21238,1.09038 10.33967,1.09038 h 10.33967 z m 22.43451,25.07683 c -0.56423,-0.56423 -0.47897,-1.19963 0.33545,-2.5 1.09051,-1.74119 10.29027,-15.816277 22.27328,-34.07683 3.48893,-5.316667 9.88112,-15.066665 14.20487,-21.666665 14.01911,-21.399493 15.03292,-22.866307 16.08292,-23.26923 0.56963,-0.218591 9.95773,-0.397437 20.86242,-0.397437 22.08161,0 23.78944,0.258292 28.52835,4.314621 3.17163,2.714795 4.504,6.313616 4.05756,10.959747 -0.38097,3.964891 -2.14796,7.563349 -8.2924,16.887376 -6.09702,9.252075 -9.64048,12.712001 -14.45116,14.110508 -2.07796,0.60408 -3.76858,1.314946 -3.75692,1.5797 0.0117,0.26476 0.46167,1.06372 1,1.775466 1.63634,2.163427 1.19888,6.207267 -1.11625,10.318673 -4.14481,7.3607 -13.21541,20.674861 -14.78666,21.704381 -2.40751,1.57746 -22.66629,1.21305 -22.97849,-0.41334 -0.11573,-0.6029 2.74286,-5.5529 6.35243,-11.000005 9.64569,-14.556029 10.84111,-16.547175 10.84111,-18.057502 0,-0.753667 -0.47454,-1.552407 -1.05453,-1.774967 -1.76816,-0.678506 -11.61383,-0.450666 -13.01884,0.301274 -0.72547,0.38826 -2.60735,2.71326 -4.18195,5.166666 -12.54699,19.549674 -17.05331,25.966124 -18.51008,26.356114 -2.84931,0.76278 -21.5762,0.49636 -22.39111,-0.31855 z m 76.27314,-54.243495 c 1.56066,-2.2 2.84787,-4.675 2.86047,-5.5 0.0223,-1.464594 -0.14746,-1.5 -7.19423,-1.5 -6.63227,0 -7.32863,0.121555 -8.59315,1.5 -1.46415,1.59607 -6.18972,8.8401 -6.18972,9.488494 0,0.212233 3.66279,0.301643 8.13953,0.198691 l 8.13954,-0.187186 z M 166.18997,75.84946 c -0.49562,-0.801927 -0.5592,-0.685627 4.8523,-8.875313 2.37752,-3.598094 4.99236,-6.98072 5.81075,-7.516953 1.18457,-0.776158 3.71393,-0.937526 12.40399,-0.791351 9.43296,0.158672 10.94413,0.330101 11.123,1.261809 0.22424,1.168073 -7.76802,13.514854 -9.98277,15.421808 -1.17445,1.011226 -2.8499,1.166666 -12.57511,1.166666 -6.76096,0 -11.38388,-0.264953 -11.63216,-0.666666 z"
     id="path94"
     inkscape:connector-curvature="0" />
</svg>
