<?xml version="1.0" encoding="utf-8"?>
<svg viewBox="0 0 1024 768" xmlns="http://www.w3.org/2000/svg">
  <path stroke="#FFF" stroke-width="20" d="M 628.13 352.842 C 627.59 353.17 609.781 350.182 587.465 348.671 C 569.24 347.436 548.009 347.483 530.721 348.653 C 516.702 349.603 498.283 342.556 496.082 350.931 C 487.844 382.282 470.119 409.586 447.571 430.859 C 430.608 446.862 411.194 458.997 390.196 466.474 C 365.197 453.632 353.391 425.07 364.044 400.027 C 372.493 380.164 382.324 358.287 364.174 353.282 C 350.961 349.638 343.706 362.295 338.627 375.827 C 328.897 401.75 310.408 428.575 305.139 460.347 C 299.577 493.89 305.121 529.495 334.131 549.601 C 401.693 596.427 475.031 520.573 552.356 501.505 C 580.38 494.594 611.141 495.708 635.831 481.408 C 654.372 470.669 666.595 452.873 670.064 432.892 C 675.644 400.755 658.925 368.826 628.13 352.842 Z" fill="#99425b"/>
  <path fill="none" stroke="#FFF" stroke-width="20" d="M 496.082 350.931 C 487.844 382.282 470.119 409.586 447.571 430.859 C 430.608 446.862 411.194 458.997 390.195 466.474 C 365.196 453.632 353.39 425.07 364.043 400.027 C 372.492 380.164 382.323 358.287 364.173 353.282 C 350.96 349.638 343.705 362.295 338.626 375.827 C 328.896 401.75 310.407 428.575 305.138 460.347 C 299.576 493.89 305.12 529.495 334.13 549.601 C 401.692 596.427 475.03 520.573 552.356 501.505 C 580.38 494.594 611.141 495.708 635.831 481.408 C 654.372 470.669 666.595 452.873 670.064 432.893 C 675.644 400.756 658.925 368.827 628.13 352.843"/>
  <path fill="#99425b" d="M 558.103 225.91 L 612.424 336.722 L 677.517 144.74 L 438.528 144.74 L 503.471 336.381 Z"/>
  <path fill="none" stroke="#FFF" stroke-width="20" d="M 558.103 225.91 L 612.424 336.722 L 677.516 144.74 L 438.528 144.74 L 503.471 336.381 Z"/>
  <circle cx="491.225" cy="362.042" r="40.945" fill="#99425b" transform="matrix(1.000001, 0, 0, 1, 0.974108, -10.719366)"/>
  <circle fill="none" stroke="#FFF" stroke-width="20" cx="491.225" cy="362.042" r="40.945" transform="matrix(1.000001, 0, 0, 1, 0.974108, -10.719366)"/>
  <circle stroke="#FFF" stroke-width="20" cx="625.583" cy="351.323" r="40.945" fill="#99425b"/>
  <circle fill="none" stroke="#FFF" cx="625.583" cy="351.323" r="40.945" stroke-width="20"/>
  <circle cx="358.31" cy="351.617" r="40.945" fill="#99425b"/>
  <circle fill="none" stroke="#FFF" stroke-width="20" cx="358.31" cy="351.617" r="40.945"/>
</svg>