<svg version="1" xmlns="http://www.w3.org/2000/svg" width="346.667" height="346.667" viewBox="0 0 260.000000 260.000000"><path d="M125.1 12.6c-2 2.5-2.1 3.9-2.1 23.6 0 20.8 0 20.9 2.5 23.3 1.3 1.4 3.4 2.5 4.5 2.5s3.2-1.1 4.5-2.5c2.5-2.4 2.5-2.4 2.5-23.8 0-21 0-21.4-2.3-23.5-3.2-3-7.1-2.8-9.6.4zM45.1 45.6c-1.2 1.5-2.1 3.6-2.1 4.8C43 53.2 73.8 84 76.6 84c3.3 0 7.4-3.8 7.4-6.8 0-2.2-3.2-5.9-15.8-18.5C51 41.6 49.1 40.5 45.1 45.6zM191.8 58.8c-16.9 16.9-17.8 18.3-13.3 22.7 4.4 4.5 5.8 3.6 22.7-13.3 17-17 18-18.7 13.5-23-4.5-4.2-6.1-3.3-22.9 13.6zM117.1 80c-9.4 2.5-15 5.8-22.9 13.4-23.9 22.8-19.9 61.5 8.2 79.8 15.2 9.8 35.1 10.7 51.8 2.2 17.3-8.7 29.5-31.4 27.4-50.5-3.6-31.6-34.4-53.1-64.5-44.9zm25.3 14c11.3 3.9 19.1 11.7 23.7 23.9 1.7 4.5 2 7.2 1.7 13.8-.6 10.6-4.5 19-12.3 26.2-7.6 6.9-14.6 9.5-25.5 9.5-11.8 0-18.5-2.7-26.6-10.8-8.2-8.2-10.8-14.7-10.9-27.1 0-8.2.3-9.7 3.2-15.5 8.8-18 28.4-26.3 46.7-20zM12.1 125.6c-2.6 3.3-2.6 5.5-.2 8.5 1.9 2.4 2.2 2.4 23.3 2.7 20.5.3 21.5.2 24.1-1.8 3.4-2.7 3.6-6.8.4-9.8-2.2-2.1-3.1-2.2-23.9-2.2H14.1l-2 2.6zM200.1 125.6c-2.7 3.5-2.6 5.9.4 8.9 2.4 2.5 2.5 2.5 23.3 2.5 19.7 0 21.1-.1 23.6-2.1 3.3-2.6 3.4-6.8.3-9.7-2.2-2.1-3.1-2.2-23.9-2.2h-21.7l-2 2.6zM58.8 191.8c-16.9 16.9-17.8 18.3-13.3 22.7 4.4 4.5 5.8 3.6 22.7-13.3 17-17 18-18.7 13.5-23-4.5-4.2-6.1-3.3-22.9 13.6zM178.1 178.6c-1.2 1.5-2.1 3.6-2.1 4.7 0 2.8 29.5 32.4 33.2 33.3 2.1.4 3.3 0 5.2-2 4.6-4.5 3.8-5.9-13.2-22.9-17.2-17.1-19.1-18.2-23.1-13.1zM125.1 200.6c-2 2.5-2.1 3.9-2.1 23.6 0 20.8 0 20.9 2.5 23.3 1.3 1.4 3.4 2.5 4.5 2.5s3.2-1.1 4.5-2.5c2.5-2.4 2.5-2.4 2.5-23.8 0-21 0-21.4-2.3-23.5-3.2-3-7.1-2.8-9.6.4z"/></svg>