<?xml version="1.0" encoding="UTF-8" standalone="no"?>
<svg
   xmlns:dc="http://purl.org/dc/elements/1.1/"
   xmlns:cc="http://creativecommons.org/ns#"
   xmlns:rdf="http://www.w3.org/1999/02/22-rdf-syntax-ns#"
   xmlns:svg="http://www.w3.org/2000/svg"
   xmlns="http://www.w3.org/2000/svg"
   viewBox="0 0 200 200"
   height="200"
   width="200"
   id="svg64"
   version="1.1">
  <metadata
     id="metadata70">
    <rdf:RDF>
      <cc:Work
         rdf:about="">
        <dc:format>image/svg+xml</dc:format>
        <dc:type
           rdf:resource="http://purl.org/dc/dcmitype/StillImage" />
        <dc:title></dc:title>
      </cc:Work>
    </rdf:RDF>
  </metadata>
  <defs
     id="defs68" />
  <path
     id="path74"
     d="M 0.73406248,198.75486 C 0.47101648,198.06469 0.37180048,153.175 0.51358348,99 l 0.257787,-98.49999996 h 99.49999952 99.5 V 99.999999 199.5 l -99.27952,0.25486 c -78.895537,0.20253 -99.3777185,-0.003 -99.75778752,-1 z M 92.580543,182.74092 c 5.41157,-1.55272 12.020297,-7.75475 14.563987,-13.66771 2.08899,-4.85599 2.14419,-6.06236 1.88935,-41.28768 L 108.77137,91.5 h -8.999998 -8.999999 l -0.5,34.54644 c -0.5576,38.52614 -0.68574,39.24117 -7.25284,40.47317 -4.44803,0.83446 -8.02457,-0.72086 -11.40762,-4.96078 -1.56175,-1.95733 -3.26249,-3.55878 -3.77943,-3.5588 -1.85806,-6e-5 -14.56011,8.25679 -14.56011,9.46466 0,1.91927 5.49338,9.03838 8.78047,11.37899 8.00221,5.69808 19.24869,7.13378 30.5287,3.89724 z m 72.690827,0.19082 c 13.85766,-3.69906 21.92574,-16.71761 19.09522,-30.81179 -2.17992,-10.85461 -8.62158,-17.01303 -25.45215,-24.33298 -12.01216,-5.22433 -14.64307,-7.42334 -14.64307,-12.23922 0,-5.07185 2.82107,-7.54775 8.6,-7.54775 3.93605,0 5.11234,0.51234 8.14959,3.54959 1.95227,1.95227 4.16622,3.31296 4.91989,3.02375 2.17181,-0.8334 13.33052,-8.58276 13.33052,-9.25761 0,-2.20177 -7.8635,-9.59194 -12.76115,-11.993022 -10.79015,-5.289881 -26.41753,-3.264896 -34.58043,4.480906 -5.14381,4.880976 -7.1096,9.894266 -7.13509,18.196386 -0.042,13.68457 6.12386,20.98315 24.62633,29.15039 12.21336,5.39113 14.63075,7.16219 15.40432,11.28567 0.81811,4.36088 -0.86457,7.37794 -5.10235,9.1486 -7.21697,3.01544 -15.18067,1.04544 -21.2494,-5.25654 -2.36377,-2.45462 -4.61377,-4.32011 -5,-4.14553 -5.01303,2.2659 -14.20223,8.29804 -14.20223,9.32289 0,2.54514 10.10004,12.39642 15.30991,14.93282 8.80394,4.28617 20.43419,5.23108 30.69009,2.49344 z"
     style="fill:#000000" />
</svg>
